<svg width="775" height="573" viewBox="0 0 775 573" fill="none" xmlns="http://www.w3.org/2000/svg">
<path d="M212.432 561.808C192.975 555.71 174.048 549.412 156.334 539.915C127.97 524.709 102.051 506.303 79.3078 483.375C61.9815 465.908 46.3085 447.268 33.9826 425.908C18.3692 398.852 7.1441 370.193 2.24252 339.23C1.04517 331.666 0.370629 324.023 0.387833 316.365C0.403306 309.481 3.65012 304.389 9.6638 300.9C22.7411 293.313 36.8733 288.542 51.395 284.663C67.9859 280.231 84.7327 276.926 101.967 276.61C105.755 276.541 107.181 274.788 106.911 270.908C105.759 254.314 104.341 237.743 104.583 221.063C105.062 188.091 111.268 156.299 123.253 125.608C124.765 121.735 126.067 117.763 127.832 114.009C134.826 99.1349 140.255 96.0313 156.738 97.5862C176.84 99.4824 196.376 104.114 215.476 110.522C233.373 116.526 250.21 124.932 266.745 133.96C267.597 134.425 268.522 134.758 269.621 135.244C272.753 131.341 274.596 126.873 276.62 122.562C291.486 90.9056 310.748 62.3733 336.094 38.097C345.21 29.366 353.339 19.5202 364.72 13.3948C366.134 12.6338 367.223 11.2172 368.367 10.0132C378.474 -0.629302 388.679 -1.89771 400.761 6.32638C421.524 20.4601 439.188 37.8392 455.456 56.9718C473.979 78.7568 488.365 102.91 500.495 128.609C503.913 135.85 504.259 136.088 511.089 131.842C535.553 116.633 562.613 108.015 590.268 101.419C601.147 98.8247 612.439 96.717 623.695 96.2291C631.236 95.9023 637.842 99.5399 642.18 106.236C647.41 114.31 649.264 123.783 652.999 132.48C659.68 148.035 663.51 164.528 665.75 181.091C669.425 208.25 671.873 235.535 667.847 263.094C665.865 276.663 664.99 274.979 678.71 276.713C708.179 280.439 737.248 285.83 763.8 300.136C770.97 304 774.968 310.197 774.298 318.548C772.536 340.53 768.283 361.994 760.494 382.704C753.734 400.678 745.885 418.135 735.041 434.032C718.858 457.757 700.778 479.713 678.688 498.487C655.771 517.965 631.197 534.55 603.768 546.672C577.176 558.423 549.429 566.772 520.45 569.916C504.624 571.633 488.759 573.562 472.688 572.497C448.156 570.871 423.945 567.32 401.056 558.329C390.67 554.249 381.718 555.41 371.92 558.843C352.554 565.628 332.593 569.775 312.095 571.514C278.39 574.374 245.369 570.713 212.432 561.808ZM322.939 425.584C325.88 430.221 328.807 434.867 331.764 439.495C346.382 462.371 363.555 483.002 384.85 500.034C386.692 501.507 388.064 502.018 389.957 500.134C402.702 487.455 416.046 475.358 427.109 461.073C446.679 435.804 460.828 407.585 471.532 377.671C478.713 357.6 483.628 336.839 485.616 315.534C487.534 294.979 488.434 274.428 486.903 253.736C485.943 240.769 484.345 227.948 481.869 215.247C478.27 196.783 473.08 178.808 466.073 161.241C455.693 135.214 442.463 110.964 425.015 89.0594C415.058 76.5582 404.101 64.9803 391.625 54.9288C386.009 50.4048 385.503 50.4433 380.437 55.3891C375.193 60.509 370.241 65.9394 364.852 70.8972C347.186 87.1478 334.487 107.291 322.804 127.715C302.729 162.806 292.279 201.495 287.673 241.411C284.158 271.868 284.775 302.565 290.646 332.891C296.881 365.096 307.151 395.916 322.939 425.584ZM190.748 148.936C184.926 146.838 178.82 145.906 172.81 144.587C163.972 142.647 163.914 142.648 161.08 150.957C153.406 173.461 149.377 196.648 148.313 220.367C147.722 233.54 148.78 246.629 150.246 259.718C153.039 284.66 158.569 308.983 168.546 331.982C181.906 362.781 198.387 391.653 220.954 417.047C233.442 431.099 247.051 443.565 261.585 455.258C273.051 464.482 286.373 470.805 298.445 479.08C300.048 480.178 301.923 481.863 304.283 480.611C305.254 478.424 304.071 476.787 302.809 475.592C294.889 468.09 291.434 457.676 285.746 448.774C275.088 432.093 267.659 413.539 261.137 394.818C250.805 365.158 245.011 334.502 242.417 303.219C240.552 280.722 241.932 258.298 244.009 235.911C245.716 217.499 250.076 199.533 254.119 181.537C254.769 178.641 253.889 177.167 251.611 175.849C232.533 164.807 212.783 155.283 190.748 148.936ZM581.807 149.434C560.685 155.45 541.252 165.274 522.139 175.838C519.646 177.216 519.326 178.768 519.946 181.539C522.917 194.833 525.776 208.16 528.268 221.551C531.784 240.449 531.309 259.694 531.899 278.766C532.588 301.024 530.756 323.261 526.353 345.25C521.608 368.953 515.064 392.172 505.314 414.173C495.828 435.579 485.578 456.793 471.189 475.59C469.724 477.504 468.242 479.501 467.762 482.055C470.106 482.916 471.629 481.582 473.025 480.617C476.141 478.464 479.23 476.5 482.766 474.898C497.593 468.183 509.825 457.391 522.379 447.421C535.247 437.202 546.987 425.253 557.174 412.42C577.054 387.375 594.999 361.031 605.868 330.375C615.704 302.635 623.188 274.618 624.981 245.062C627.004 211.721 622.645 179.383 612.535 147.682C611.446 144.268 609.299 142.472 605.809 143.503C598.148 145.765 590.055 146.251 581.807 149.434ZM631.419 379.886C620.348 403.619 605.418 424.79 588.176 444.359C581.802 451.593 576.363 459.715 568.838 465.874C563.425 470.305 557.915 474.604 552.953 479.552C540.263 492.208 525.39 502.008 510.331 511.452C502.886 516.12 494.665 519.542 486.862 523.656C485.105 524.583 482.719 525.003 481.882 528.34C528.61 528.498 572.104 517.219 611.364 493.269C671.923 456.325 714.528 405.31 727.998 333.253C727.669 332.525 726.629 332.309 725.703 332.013C704.368 325.19 682.502 321.35 660.137 320.197C656.53 320.011 655.133 321.805 654.263 324.913C648.95 343.918 641.163 361.908 631.419 379.886ZM267.902 527.594C275.133 526.753 282.488 529.802 289.735 527.605C289.575 524.349 287.379 523.844 285.697 522.956C275.556 517.608 265.151 512.839 255.682 506.166C243.98 497.92 231.884 490.143 221.296 480.526C203.293 464.175 185.979 447.058 171.734 427.209C163.684 415.992 155.431 404.852 149.167 392.474C138.119 370.643 126.346 349.122 119.44 325.453C118.225 321.29 115.858 319.478 111.321 320.222C105.917 321.108 100.44 321.847 94.9757 322.017C77.9234 322.55 62.2343 328.75 45.6649 332.908C47.769 341.591 49.3799 349.892 51.8046 357.949C60.77 387.738 76.0988 414.279 96.1988 437.67C118.832 464.008 145.668 485.48 176.994 501.125C195.872 510.553 215.52 517.569 236.016 522.301C246.222 524.657 256.591 526.193 267.902 527.594Z" fill="#505673"/>
</svg>
